<svg xmlns="http://www.w3.org/2000/svg" width="360" height="140" viewBox="0 0 360 140">
  <line x1="10" y1="70" x2="350" y2="70" stroke="#e8f0c8" stroke-width="3" stroke-linecap="round"/>
  <g transform="translate(50,70) rotate(-20)"><path d="M0,0 C-3,-10 -2,-28 3,-40 C5,-28 4,-10 0,0Z" fill="#e8f0c8"/><line x1="1" y1="-2" x2="3" y2="-38" stroke="#1a3a1a" stroke-width="1.4"/></g>
  <g transform="translate(105,70) rotate(28)"><path d="M0,0 C-8,-8 -10,-22 -4,-36 C2,-40 8,-34 10,-20 C8,-8 0,0 0,0Z" fill="#e8f0c8"/><line x1="2" y1="-2" x2="2" y2="-36" stroke="#1a3a1a" stroke-width="1.6"/><line x1="2" y1="-14" x2="-4" y2="-24" stroke="#1a3a1a" stroke-width="0.8" fill="none"/><line x1="2" y1="-14" x2="8" y2="-24" stroke="#1a3a1a" stroke-width="0.8" fill="none"/></g>
  <g transform="translate(158,70) rotate(-8)"><path d="M0,0 C-2,-12 -1,-30 0,-42 C1,-30 2,-12 0,0Z" fill="#e8f0c8"/><line x1="0" y1="-2" x2="0" y2="-40" stroke="#1a3a1a" stroke-width="1.3"/></g>
  <g transform="translate(208,70) rotate(-35)"><path d="M0,0 C-4,-8 -6,-22 0,-36 C4,-26 6,-10 0,0Z" fill="#e8f0c8"/><line x1="-1" y1="-2" x2="0" y2="-34" stroke="#1a3a1a" stroke-width="1.5"/></g>
  <g transform="translate(268,70) rotate(22)"><path d="M0,0 C-9,-7 -10,-20 -4,-34 C0,-38 5,-32 9,-18 C8,-6 0,0 0,0Z" fill="#e8f0c8"/><line x1="1" y1="-2" x2="1" y2="-34" stroke="#1a3a1a" stroke-width="1.6"/><line x1="1" y1="-16" x2="-5" y2="-26" stroke="#1a3a1a" stroke-width="0.8" fill="none"/><line x1="1" y1="-16" x2="7" y2="-26" stroke="#1a3a1a" stroke-width="0.8" fill="none"/></g>
  <g transform="translate(322,70) rotate(-18)"><path d="M0,0 C-3,-10 -3,-26 1,-38 C4,-26 4,-10 0,0Z" fill="#e8f0c8"/><line x1="0" y1="-2" x2="1" y2="-36" stroke="#1a3a1a" stroke-width="1.4"/></g>
  <g transform="translate(75,70) rotate(18)"><path d="M0,0 C-4,10 -4,26 0,40 C4,26 4,10 0,0Z" fill="#e8f0c8"/><line x1="0" y1="2" x2="0" y2="38" stroke="#1a3a1a" stroke-width="1.5"/></g>
  <g transform="translate(130,70) rotate(-30)"><path d="M0,0 C-2,10 -2,26 1,38 C3,26 3,10 0,0Z" fill="#e8f0c8"/><line x1="0" y1="2" x2="1" y2="36" stroke="#1a3a1a" stroke-width="1.3"/></g>
  <g transform="translate(183,70) rotate(8)"><path d="M0,0 C-8,8 -9,22 -3,36 C0,40 4,36 9,22 C8,8 0,0 0,0Z" fill="#e8f0c8"/><line x1="1" y1="2" x2="1" y2="36" stroke="#1a3a1a" stroke-width="1.6"/><line x1="1" y1="18" x2="-5" y2="28" stroke="#1a3a1a" stroke-width="0.8" fill="none"/><line x1="1" y1="18" x2="7" y2="28" stroke="#1a3a1a" stroke-width="0.8" fill="none"/></g>
  <g transform="translate(235,70) rotate(25)"><line x1="0" y1="0" x2="0" y2="12" stroke="#1a3a1a" stroke-width="1.5"/><ellipse cx="0" cy="26" rx="9" ry="14" fill="#e8f0c8"/><ellipse cx="0" cy="26" rx="5" ry="7" fill="#1a3a1a"/><ellipse cx="0" cy="26" rx="2.5" ry="3.5" fill="#e8f0c8"/></g>
  <g transform="translate(290,70) rotate(-22)"><path d="M0,0 C-3,10 -2,26 0,40 C2,26 3,10 0,0Z" fill="#e8f0c8"/><line x1="0" y1="2" x2="0" y2="38" stroke="#1a3a1a" stroke-width="1.4"/></g>
  <circle cx="220" cy="70" r="7" fill="#e8f0c8"/>
  <circle cx="220" cy="70" r="4" fill="#1a3a1a"/>
  <circle cx="220" cy="70" r="2" fill="#e8f0c8"/>
</svg>
